<?xml version="1.0" encoding="UTF-8"?>
<svg version="1.1" xmlns="http://www.w3.org/2000/svg" width="612" height="408">
<path d="M0 0 C17.49 0 34.98 0 53 0 C57.65156805 9.3031361 62.25486024 18.52304523 66.5 28 C67.985 31.3 69.47 34.6 71 38 C85.85 38.495 85.85 38.495 101 39 C101.33 40.65 101.66 42.3 102 44 C99.56241092 46.43758908 98.89665856 46.2639892 95.55029297 46.31884766 C94.62948944 46.33871735 93.70868591 46.35858704 92.75997925 46.37905884 C91.76410797 46.39061005 90.76823669 46.40216125 89.7421875 46.4140625 C88.72399933 46.43342865 87.70581116 46.4527948 86.6567688 46.4727478 C83.39626511 46.53265355 80.13572633 46.57897299 76.875 46.625 C74.66795313 46.66316965 72.46092131 46.70222077 70.25390625 46.7421875 C64.83607089 46.83836394 59.41814527 46.92337899 54 47 C58.30572265 48.43524088 62.62098864 47.93551905 67.10742188 47.69726562 C70.26989782 47.61813045 72.48863366 47.67607399 75.1953125 49.390625 C77.93419835 53.35074566 79.91619212 57.57569143 81.9375 61.9375 C82.63951538 63.42745483 82.63951538 63.42745483 83.35571289 64.94750977 C87.88785893 74.62525886 92.25504124 84.37993277 96.58374023 94.15014648 C99.81531634 101.43772379 99.81531634 101.43772379 103.31640625 108.59765625 C104.62355324 111.23924564 105.47390923 113.16647436 106 116 C105.3203125 117.76171875 105.3203125 117.76171875 104.125 119.6875 C101.45817934 124.18172422 98.98942745 128.74854294 96.5625 133.375 C94.11498166 138.01799818 91.65842878 142.65311184 89.125 147.25 C85.53681375 153.77582315 82.12245831 160.39424351 78.69384766 167.00488281 C78.23155762 167.89272461 77.76926758 168.78056641 77.29296875 169.6953125 C76.8755542 170.49984863 76.45813965 171.30438477 76.02807617 172.13330078 C75 174 75 174 74 175 C72.63391674 175.09535213 71.26294545 175.1218867 69.89353943 175.12025452 C69.00867859 175.12162918 68.12381775 175.12300385 67.21214294 175.12442017 C66.23391068 175.12082489 65.25567841 175.11722961 64.24780273 175.11352539 C63.2235318 175.11367142 62.19926086 175.11381744 61.14395142 175.1139679 C57.74047771 175.11326828 54.33705796 175.10547363 50.93359375 175.09765625 C48.58089732 175.09579224 46.2282005 175.09436826 43.87550354 175.09336853 C37.66943295 175.08954199 31.4633856 175.07971055 25.25732422 175.06866455 C18.93001622 175.05845334 12.60270448 175.05387154 6.27539062 175.04882812 C-6.14974982 175.0380884 -18.57487298 175.02101036 -31 175 C-31.30579987 175.77269226 -31.61159973 176.54538452 -31.92666626 177.3414917 C-33.00784756 180.01943738 -34.20545511 182.60265294 -35.4609375 185.203125 C-36.16863281 186.67458984 -36.16863281 186.67458984 -36.890625 188.17578125 C-37.38046875 189.19027344 -37.8703125 190.20476562 -38.375 191.25 C-41.69128001 198.1219706 -44.95405175 205.0033229 -48 212 C-47.28344238 211.98952637 -46.56688477 211.97905273 -45.82861328 211.96826172 C-42.59411095 211.92678701 -39.35966447 211.90070108 -36.125 211.875 C-34.99707031 211.85824219 -33.86914062 211.84148437 -32.70703125 211.82421875 C-31.63066406 211.81777344 -30.55429688 211.81132812 -29.4453125 211.8046875 C-28.45031738 211.79421387 -27.45532227 211.78374023 -26.43017578 211.77294922 C-24 212 -24 212 -22 214 C-22.53571429 217.53571429 -22.53571429 217.53571429 -24 219 C-26.14386657 219.15858842 -28.29266838 219.25129298 -30.44140625 219.31640625 C-32.39916992 219.37924805 -32.39916992 219.37924805 -34.39648438 219.44335938 C-35.7851533 219.48317608 -37.17382522 219.52288825 -38.5625 219.5625 C-39.95509183 219.60567989 -41.34767028 219.649294 -42.74023438 219.69335938 C-46.16002549 219.79985806 -49.57999896 219.90047056 -53 220 C-54.98 224.29 -56.96 228.58 -59 233 C-65.63844304 233.16750892 -72.27700357 233.32807987 -78.91577148 233.48217773 C-81.1749322 233.53559999 -83.43404863 233.59092952 -85.69311523 233.64819336 C-88.93724012 233.73009772 -92.18146155 233.80517779 -95.42578125 233.87890625 C-96.94465691 233.91945885 -96.94465691 233.91945885 -98.49421692 233.96083069 C-99.43496567 233.98092697 -100.37571442 234.00102325 -101.3449707 234.02172852 C-102.58740288 234.05170677 -102.58740288 234.05170677 -103.85493469 234.08229065 C-106 234 -106 234 -109 233 C-107.58300661 228.35026792 -105.66154825 224.11819654 -103.4375 219.8125 C-101.06760236 215.18183023 -98.76598787 210.53708684 -96.61328125 205.80078125 C-96.21890869 204.93928467 -95.82453613 204.07778809 -95.41821289 203.19018555 C-94.65069316 201.50485015 -93.89303606 199.81498162 -93.14624023 198.12036133 C-92.79376221 197.35103271 -92.44128418 196.5817041 -92.078125 195.7890625 C-91.77293945 195.10537598 -91.46775391 194.42168945 -91.15332031 193.71728516 C-89.6818468 191.52627231 -88.47170861 190.8851849 -86 190 C-83.98535156 189.86474609 -83.98535156 189.86474609 -81.890625 190.0234375 C-81.13652344 190.075 -80.38242188 190.1265625 -79.60546875 190.1796875 C-78.82816406 190.24414062 -78.05085938 190.30859375 -77.25 190.375 C-76.45722656 190.43171875 -75.66445312 190.4884375 -74.84765625 190.546875 C-72.89768265 190.68783695 -70.94871329 190.8425712 -69 191 C-69 190.01 -69 189.02 -69 188 C-69.59690643 188.00444122 -70.19381287 188.00888245 -70.80880737 188.01345825 C-77.00516371 188.05760581 -83.20147558 188.08783059 -89.39794922 188.10986328 C-91.71242079 188.11993892 -94.02687959 188.13359975 -96.34130859 188.15087891 C-99.66246693 188.17505865 -102.9834574 188.1864673 -106.3046875 188.1953125 C-107.34430634 188.20563507 -108.38392517 188.21595764 -109.45504761 188.22659302 C-110.41589264 188.22674408 -111.37673767 188.22689514 -112.36669922 188.22705078 C-113.21497284 188.231492 -114.06324646 188.23593323 -114.93722534 188.24050903 C-117 188 -117 188 -119 186 C-118.46428571 182.46428571 -118.46428571 182.46428571 -117 181 C-114.62661361 180.84028023 -112.27881728 180.7407567 -109.90234375 180.68359375 C-108.83905602 180.6524221 -108.83905602 180.6524221 -107.75428772 180.62062073 C-105.48212695 180.55505402 -103.20984736 180.4962077 -100.9375 180.4375 C-99.40037817 180.39432151 -97.8632685 180.35070745 -96.32617188 180.30664062 C-92.5509041 180.19936551 -88.7755164 180.09811863 -85 180 C-81.14859001 172.34980177 -77.3699537 164.67038271 -73.6875 156.9375 C-72.97811279 155.44996216 -72.97811279 155.44996216 -72.25439453 153.93237305 C-71.29223672 151.91384547 -70.33063986 149.89505041 -69.36962891 147.87597656 C-68.11752698 145.2467857 -66.86197173 142.61927697 -65.60546875 139.9921875 C-61.36652818 131.10976777 -57.25336525 122.17914809 -53.23168945 113.19628906 C-49.90073721 105.75927105 -46.48253278 98.3674299 -43 91 C-42.62230469 90.19949219 -42.24460937 89.39898437 -41.85546875 88.57421875 C-37.23938101 78.79983613 -32.59939848 69.0424713 -27.68774414 59.41235352 C-25.28758115 54.68049184 -23.12241215 49.86208297 -21 45 C-16.78899298 35.36449619 -12.49690113 25.81683115 -7.73510742 16.4387207 C-5.32505572 11.68692326 -3.10854953 6.8918349 -1 2 C-0.67 1.34 -0.34 0.68 0 0 Z M24 54 C15.93924952 71.15213746 8.10143251 88.38959373 0.47070312 105.73730469 C-0.17531973 107.20267751 -0.82179136 108.66785258 -1.46875 110.1328125 C-1.92852234 111.17423401 -1.92852234 111.17423401 -2.39758301 112.23669434 C-4.5049442 116.97518194 -6.75268897 121.62065454 -9.16992188 126.21044922 C-10.14026134 127.97360461 -10.14026134 127.97360461 -10 130 C13.1 130 36.2 130 60 130 C59.34 128.35 58.68 126.7 58 125 C42.16 124.67 26.32 124.34 10 124 C9 120 9 120 9 118 C23.85 118 38.7 118 54 118 C52.14648508 112.43945523 50.55586001 107.76398629 48.0625 102.625 C45.6611408 97.61503734 43.35584568 92.5711169 41.12109375 87.484375 C40.35043579 85.73133057 40.35043579 85.73133057 39.56420898 83.94287109 C38.54788146 81.62468624 37.53545055 79.30478774 36.52758789 76.98291016 C33.05770614 69.08561888 29.19042875 61.53316352 25 54 C24.67 54 24.34 54 24 54 Z " fill="#F8F7F7" transform="translate(207,83)"/>
<path d="M0 0 C9.9660608 4.80195123 19.57220774 9.99130968 29.06640625 15.66796875 C33.2160746 18.14575624 37.43890647 20.47139119 41.703125 22.74609375 C46.72718978 25.48882299 46.72718978 25.48882299 49 27 C49 27.66 49 28.32 49 29 C43.96145894 29.83211276 39.1874338 30.1078534 34.0625 30.0625 C33.37865234 30.05798828 32.69480469 30.05347656 31.99023438 30.04882812 C30.32678396 30.0371956 28.6633795 30.01926694 27 30 C27 30.66 27 31.32 27 32 C28.22630127 31.98952637 29.45260254 31.97905273 30.71606445 31.96826172 C35.26144497 31.93208896 39.80681273 31.90910943 44.35229492 31.89013672 C46.32041564 31.88007293 48.28852138 31.86642066 50.2565918 31.84912109 C53.08385918 31.82488941 55.91092905 31.81352077 58.73828125 31.8046875 C59.61962234 31.79436493 60.50096344 31.78404236 61.40901184 31.77340698 C62.22963608 31.77325592 63.05026031 31.77310486 63.89575195 31.77294922 C64.61745071 31.768508 65.33914948 31.76406677 66.0827179 31.75949097 C68 32 68 32 71 34 C70.67 35.98 70.34 37.96 70 40 C70.71929687 40.27328125 71.43859375 40.5465625 72.1796875 40.828125 C74.95061617 41.9794804 77.50277791 43.29407968 80.125 44.75 C83.02326737 46.35495451 85.92004898 47.95738874 88.84375 49.515625 C94.80289719 52.69606872 100.45633841 56.13996896 106 60 C104.14364018 66.55185821 101.46687787 71.82374 97.953125 77.640625 C95.82720122 81.2972139 93.93179077 85.0209019 92.0625 88.8125 C91.72395996 89.48345703 91.38541992 90.15441406 91.03662109 90.84570312 C89.33368792 94.23055558 87.72023497 97.62004986 86.2421875 101.109375 C82.62020848 109.27376996 79.24418148 113.48902894 70.84594727 116.84936523 C69.53512434 117.34086306 68.22037639 117.82202384 66.90185547 118.29248047 C63.97047205 119.38300026 61.18890787 120.76409183 58.375 122.125 C54.29879192 124.05463352 50.16488375 125.71041353 45.94921875 127.3046875 C38.9953305 129.95619143 32.21865371 132.9377942 25.4375 136 C15.57360764 140.43903323 5.66061448 144.70864333 -4.36328125 148.7734375 C-5.35424805 149.175625 -5.35424805 149.175625 -6.36523438 149.5859375 C-7.65062898 150.10679951 -8.9370715 150.62508379 -10.22460938 151.140625 C-14.90777105 153.04841152 -19.48610593 155.15112983 -24.05859375 157.30859375 C-31.19485241 160.66987055 -38.41916548 163.78145085 -45.69482422 166.82699585 C-58.30385959 172.10641154 -70.83961099 177.52337728 -83.28417969 183.18041992 C-98.40694791 190 -98.40694791 190 -103 190 C-101.31723296 184.02016713 -98.39840052 178.76916416 -95.5 173.3125 C-94.70239258 171.79849609 -94.70239258 171.79849609 -93.88867188 170.25390625 C-92.79477752 168.17824497 -91.69906879 166.10353889 -90.6015625 164.02978516 C-89.10252675 161.19395685 -87.6117997 158.35397726 -86.125 155.51171875 C-85.25008776 153.84109987 -84.37509234 152.17052455 -83.5 150.5 C-83.10361328 149.74243408 -82.70722656 148.98486816 -82.29882812 148.2043457 C-81.55401112 146.78776106 -80.79978904 145.37606964 -80.03491211 143.97021484 C-78.98325022 142.03382497 -78.98325022 142.03382497 -78.18579102 140.08056641 C-75.44393874 134.11765667 -70.84151589 132.61512878 -64.9375 130.375 C-63.04264613 129.61278069 -61.14811164 128.84976691 -59.25390625 128.0859375 C-58.34656738 127.72854492 -57.43922852 127.37115234 -56.50439453 127.00292969 C-52.58795614 125.43452172 -48.78434003 123.65677982 -44.9609375 121.875 C-41.12973538 120.16545961 -38.1804642 119.88204652 -34.01953125 119.90234375 C-32.85615234 119.90556641 -31.69277344 119.90878906 -30.49414062 119.91210938 C-29.27919922 119.92048828 -28.06425781 119.92886719 -26.8125 119.9375 C-25.58595703 119.94201172 -24.35941406 119.94652344 -23.09570312 119.95117188 C-20.06375332 119.96296935 -17.03190094 119.97943079 -14 120 C-14 119.34 -14 118.68 -14 118 C-18.62 118 -23.24 118 -28 118 C-28 117.01 -28 116.02 -28 115 C-19.21080606 110.25846116 -10.08366235 106.4795991 -0.859375 102.6809082 C5.46579606 100.07118437 11.70434081 97.36470655 17.89453125 94.44921875 C21.80409999 92.62475334 25.74056968 90.86688506 29.6875 89.125 C30.38423828 88.81409424 31.08097656 88.50318848 31.79882812 88.18286133 C36.76633593 86 36.76633593 86 39 86 C39 85.34 39 84.68 39 84 C38.20335937 83.77570313 37.40671875 83.55140625 36.5859375 83.3203125 C31.97799961 81.62370792 27.88938071 79.29103348 23.625 76.875 C17.49714108 73.45262338 11.36079968 70.09856764 5.0625 67 C-1.43406489 63.78376188 -7.92036796 60.54980002 -14.375 57.25 C-15.29788818 56.78980469 -16.22077637 56.32960937 -17.17163086 55.85546875 C-18.03022705 55.41332031 -18.88882324 54.97117188 -19.7734375 54.515625 C-20.54091309 54.12665039 -21.30838867 53.73767578 -22.09912109 53.33691406 C-24.39407839 51.72283929 -25.23800472 50.70626954 -26 48 C-25.26831055 45.7043457 -25.26831055 45.7043457 -23.88671875 43.17578125 C-23.13346313 41.76800415 -23.13346313 41.76800415 -22.36499023 40.33178711 C-21.53463257 38.83723999 -21.53463257 38.83723999 -20.6875 37.3125 C-19.86004272 35.77831421 -19.86004272 35.77831421 -19.01586914 34.21313477 C-17.89120064 32.1292524 -16.76025507 30.04874552 -15.62304688 27.97167969 C-13.35297072 23.81533688 -11.14535856 19.6270969 -8.9375 15.4375 C-8.23835318 14.12365964 -7.53913904 12.80985509 -6.83984375 11.49609375 C-5.65041234 9.23592153 -4.4941556 6.95783865 -3.37890625 4.66015625 C-2 2 -2 2 0 0 Z " fill="#F7F6F6" transform="translate(423,134)"/>
<path d="M0 0 C0.90078278 0.02009628 1.80156555 0.04019257 2.72964478 0.06089783 C3.70364227 0.08793289 4.67763977 0.11496796 5.68115234 0.14282227 C7.17514053 0.17823875 7.17514053 0.17823875 8.6993103 0.21437073 C11.88871165 0.29110498 15.07787613 0.37508735 18.26708984 0.45922852 C20.42593232 0.51243942 22.58478644 0.56517988 24.74365234 0.61743164 C30.04327891 0.74673328 35.34272875 0.88199042 40.64208984 1.02172852 C40.07486627 4.43287577 39.24969945 7.13768366 37.60302734 10.17407227 C37.19133301 10.94275635 36.77963867 11.71144043 36.35546875 12.50341797 C35.91380371 13.31383545 35.47213867 14.12425293 35.01708984 14.95922852 C34.0940067 16.67993511 33.17213695 18.40129318 32.25146484 20.12329102 C31.8009375 20.96408203 31.35041016 21.80487305 30.88623047 22.67114258 C29.28433307 25.69764731 27.77162739 28.75811958 26.26708984 31.83422852 C21.80392727 40.84496335 16.89443414 49.61555225 12.05957031 58.43041992 C7.87419306 66.08174514 3.73493076 73.75416248 -0.10791016 81.58422852 C-3.44000825 88.32086163 -7.07857718 94.88535342 -10.69287109 101.47314453 C-13.97312162 107.45985407 -17.196205 113.47165521 -20.35791016 119.52172852 C-24.14798814 126.75345184 -27.97952161 133.96194397 -31.85791016 141.14672852 C-32.37482422 142.11416992 -32.89173828 143.08161133 -33.42431641 144.07836914 C-34.14941406 145.41544922 -34.14941406 145.41544922 -34.88916016 146.77954102 C-35.31777344 147.57505371 -35.74638672 148.37056641 -36.18798828 149.19018555 C-37.35791016 151.02172852 -37.35791016 151.02172852 -39.35791016 152.02172852 C-41.61081609 152.03815019 -43.864366 151.9857701 -46.11572266 151.90063477 C-46.77877411 151.87702377 -47.44182556 151.85341278 -48.12496948 151.8290863 C-50.24450145 151.75246036 -52.36366701 151.66843209 -54.48291016 151.58422852 C-55.91909009 151.53100671 -57.35528796 151.47826631 -58.79150391 151.42602539 C-62.31386451 151.29684708 -65.83593367 151.16102821 -69.35791016 151.02172852 C-69.35791016 152.01172852 -69.35791016 153.00172852 -69.35791016 154.02172852 C-59.78791016 154.02172852 -50.21791016 154.02172852 -40.35791016 154.02172852 C-41.21731983 159.17818655 -41.95447706 161.63675579 -44.35009766 166.02954102 C-44.96763916 167.17165039 -45.58518066 168.31375977 -46.22143555 169.49047852 C-46.89175489 170.70932323 -47.56225011 171.92807124 -48.23291016 173.14672852 C-48.91651871 174.40413506 -49.59937382 175.66195151 -50.28149414 176.92016602 C-52.29492157 180.62733845 -54.32377516 184.32588557 -56.35791016 188.02172852 C-56.91526855 189.03460938 -57.47262695 190.04749023 -58.046875 191.09106445 C-59.95616405 194.55645129 -61.86647563 198.02125189 -63.78295898 201.48266602 C-66.58823289 206.56487577 -69.22667233 211.7042102 -71.77587891 216.92016602 C-74.17959512 221.63263681 -76.78443717 226.23199814 -79.4050293 230.8269043 C-83.70035356 238.43476158 -87.42932192 246.16455205 -91.35791016 254.02172852 C-106.20791016 254.02172852 -121.05791016 254.02172852 -136.35791016 254.02172852 C-135.23384509 247.27733809 -135.23384509 247.27733809 -133.13525391 243.62329102 C-132.6836792 242.82334717 -132.23210449 242.02340332 -131.7668457 241.19921875 C-131.28127197 240.35689697 -130.79569824 239.5145752 -130.29541016 238.64672852 C-129.27742351 236.83946299 -128.26181748 235.03085456 -127.24853516 233.22094727 C-126.50120117 231.88749268 -126.50120117 231.88749268 -125.73876953 230.52709961 C-123.91334316 227.21512553 -122.20950711 223.85446058 -120.54541016 220.45922852 C-116.91307619 213.07551526 -113.14868188 205.76272662 -109.35791016 198.45922852 C-109.05045868 197.86681366 -108.7430072 197.2743988 -108.42623901 196.66403198 C-104.42216487 188.95345437 -100.38396806 181.26325221 -96.27587891 173.60766602 C-93.96604025 169.30035992 -91.69414476 164.97317016 -89.42041016 160.64672852 C-86.22030139 154.55901446 -83.01441004 148.47447664 -79.79541016 142.39672852 C-79.42883301 141.70409912 -79.06225586 141.01146973 -78.68457031 140.29785156 C-76.8205281 136.77720243 -74.95199295 133.25903364 -73.07666016 129.74438477 C-69.04636564 122.17983199 -65.11037103 114.58157294 -61.30688477 106.90039062 C-58.75574555 101.76710108 -56.07700042 96.71150742 -53.35766602 91.66577148 C-50.93869164 87.15862264 -48.62769268 82.60562526 -46.35791016 78.02172852 C-43.7757185 72.80691176 -41.11860109 67.644299 -38.35791016 62.52172852 C-35.64206718 57.48084934 -33.02353302 52.40312647 -30.48291016 47.27172852 C-26.76237525 39.76543451 -22.88322197 32.34929949 -18.95947266 24.94750977 C-17.14199043 21.51778951 -15.3484792 18.07670607 -13.56884766 14.62719727 C-13.11493652 13.75168213 -12.66102539 12.87616699 -12.19335938 11.97412109 C-11.31809389 10.28487471 -10.44716201 8.59337425 -9.58105469 6.89941406 C-9.18772949 6.14313721 -8.7944043 5.38686035 -8.38916016 4.60766602 C-7.87192383 3.60292236 -7.87192383 3.60292236 -7.34423828 2.57788086 C-5.45797816 -0.39811469 -3.23679026 -0.08137182 0 0 Z " fill="#F6F6F6" transform="translate(390.35791015625,81.978271484375)"/>
<path d="M0 0 C0.99 0.66 1.98 1.32 3 2 C3 2.99 3 3.98 3 5 C-12.18 5 -27.36 5 -43 5 C-42.67 6.32 -42.34 7.64 -42 9 C-17.745 9.495 -17.745 9.495 7 10 C7.99 13.96 7.99 13.96 9 18 C-15.42 18 -39.84 18 -65 18 C-64.34 16.68 -63.68 15.36 -63 14 C-63 14.66 -63 15.32 -63 16 C-28.845 15.505 -28.845 15.505 6 15 C5.505 13.02 5.505 13.02 5 11 C4.40309357 11.00444122 3.80618713 11.00888245 3.19119263 11.01345825 C-3.00516371 11.05760581 -9.20147558 11.08783059 -15.39794922 11.10986328 C-17.71242079 11.11993892 -20.02687959 11.13359975 -22.34130859 11.15087891 C-25.66246693 11.17505865 -28.9834574 11.1864673 -32.3046875 11.1953125 C-33.34430634 11.20563507 -34.38392517 11.21595764 -35.45504761 11.22659302 C-36.41589264 11.22674408 -37.37673767 11.22689514 -38.36669922 11.22705078 C-39.21497284 11.231492 -40.06324646 11.23593323 -40.93722534 11.24050903 C-43 11 -43 11 -45 9 C-44.67 7.35 -44.34 5.7 -44 4 C-29.15 4 -14.3 4 1 4 C0.505 2.02 0.505 2.02 0 0 Z " fill="#B1ADAE" transform="translate(260,197)"/>
<path d="M0 0 C0.66 0 1.32 0 2 0 C0.125 5.875 0.125 5.875 -1 7 C-2.36608326 7.09535213 -3.73705455 7.1218867 -5.10646057 7.12025452 C-5.99132141 7.12162918 -6.87618225 7.12300385 -7.78785706 7.12442017 C-9.25520546 7.11902725 -9.25520546 7.11902725 -10.75219727 7.11352539 C-11.7764682 7.11367142 -12.80073914 7.11381744 -13.85604858 7.1139679 C-17.25952229 7.11326828 -20.66294204 7.10547363 -24.06640625 7.09765625 C-26.41910268 7.09579224 -28.7717995 7.09436826 -31.12449646 7.09336853 C-37.33056705 7.08954199 -43.5366144 7.07971055 -49.74267578 7.06866455 C-56.06998378 7.05845334 -62.39729552 7.05387154 -68.72460938 7.04882812 C-81.14974982 7.0380884 -93.57487298 7.02101036 -106 7 C-106.33 7.99 -106.66 8.98 -107 10 C-107.5625 8.0625 -107.5625 8.0625 -108 6 C-107 5 -107 5 -105.22151089 4.87695217 C-104.0503729 4.87833486 -104.0503729 4.87833486 -102.85557556 4.87974548 C-101.51566307 4.87768349 -101.51566307 4.87768349 -100.14868164 4.87557983 C-98.66730713 4.88097275 -98.66730713 4.88097275 -97.15600586 4.88647461 C-96.12198135 4.88632858 -95.08795685 4.88618256 -94.02259827 4.8860321 C-90.58665914 4.88673173 -87.15077347 4.89452642 -83.71484375 4.90234375 C-81.33972707 4.90420775 -78.96461 4.90563174 -76.5894928 4.90663147 C-70.32423856 4.91045803 -64.05900733 4.9202895 -57.79376221 4.93133545 C-51.4061311 4.9415466 -45.01849629 4.94612845 -38.63085938 4.95117188 C-26.08722974 4.96191164 -13.54361609 4.97879873 -1 5 C-0.67 3.35 -0.34 1.7 0 0 Z " fill="#A09E9E" transform="translate(282,251)"/>
<path d="M0 0 C0.33 0.99 0.66 1.98 1 3 C1.71655762 2.98952637 2.43311523 2.97905273 3.17138672 2.96826172 C6.40588905 2.92678701 9.64033553 2.90070108 12.875 2.875 C14.00292969 2.85824219 15.13085938 2.84148437 16.29296875 2.82421875 C17.36933594 2.81777344 18.44570312 2.81132812 19.5546875 2.8046875 C20.54968262 2.79421387 21.54467773 2.78374023 22.56982422 2.77294922 C25 3 25 3 27 5 C26.625 7.125 26.625 7.125 26 9 C25.67 7.68 25.34 6.36 25 5 C16.09 5 7.18 5 -2 5 C-1.34 3.35 -0.68 1.7 0 0 Z " fill="#9C9899" transform="translate(158,292)"/>
<path d="M0 0 C0.33 0.99 0.66 1.98 1 3 C10.57 3 20.14 3 30 3 C29 9 29 9 27 11 C27.33 9.02 27.66 7.04 28 5 C26.85337891 5.01740234 26.85337891 5.01740234 25.68359375 5.03515625 C17.06836707 5.10772735 8.58412275 4.66488364 0 4 C0 2.68 0 1.36 0 0 Z " fill="#BEB1B4" transform="translate(320,233)"/>
<path d="M0 0 C3.3 1.65 6.6 3.3 10 5 C9.34 5.66 8.68 6.32 8 7 C8 6.34 8 5.68 8 5 C4.7 4.67 1.4 4.34 -2 4 C-2.12375 4.804375 -2.2475 5.60875 -2.375 6.4375 C-2.58125 7.283125 -2.7875 8.12875 -3 9 C-3.99 9.495 -3.99 9.495 -5 10 C-3.89470285 5.49378854 -3.34905453 3.34905453 0 0 Z " fill="#9E9A9B" transform="translate(423,134)"/>
<path d="M0 0 C2.48020497 0.11341491 4.95844969 0.24014686 7.4375 0.375 C8.14455078 0.4059375 8.85160156 0.436875 9.58007812 0.46875 C11.39239188 0.57280629 13.19817988 0.77919892 15 1 C15.33 1.66 15.66 2.32 16 3 C10.72 3 5.44 3 0 3 C0 2.01 0 1.02 0 0 Z " fill="#A8A0A2" transform="translate(395,249)"/>
<path d="M0 0 C2.475 0.99 2.475 0.99 5 2 C5 2.66 5 3.32 5 4 C-1.15901243 5.23180249 -6.78675502 4.73030908 -13 4 C-13 3.67 -13 3.34 -13 3 C-12.14535156 2.95101562 -11.29070312 2.90203125 -10.41015625 2.8515625 C-9.30542969 2.77679688 -8.20070313 2.70203125 -7.0625 2.625 C-5.40927734 2.52058594 -5.40927734 2.52058594 -3.72265625 2.4140625 C-2.37494141 2.20910156 -2.37494141 2.20910156 -1 2 C-0.67 1.34 -0.34 0.68 0 0 Z " fill="#A6A3A3" transform="translate(467,159)"/>
<path d="M0 0 C1.0326802 2.78823655 1.04509293 3.8677274 0.0625 6.75 C-0.288125 7.4925 -0.63875 8.235 -1 9 C-1.66 9 -2.32 9 -3 9 C-3 9.99 -3 10.98 -3 12 C-3.66 12 -4.32 12 -5 12 C-3.41037341 7.96479403 -1.71767682 3.98188718 0 0 Z " fill="#BDB8BB" transform="translate(338,287)"/>
<path d="M0 0 C0.99 0.33 1.98 0.66 3 1 C1.33333333 4.33333333 -0.33333333 7.66666667 -2 11 C-3.53271273 6.41201223 -2.02911182 4.22055258 0 0 Z " fill="#AFA8AA" transform="translate(230,135)"/>
<path d="M0 0 C0.33 0.99 0.66 1.98 1 3 C1.66 3.33 2.32 3.66 3 4 C-1.75 8.875 -1.75 8.875 -4 10 C-2.99806563 6.20696275 -2.18975773 3.28463659 0 0 Z " fill="#B3AEAF" transform="translate(187,126)"/>
<path d="M0 0 C1.125 3.75 1.125 3.75 0 6 C-0.66 6 -1.32 6 -2 6 C-2.33 7.65 -2.66 9.3 -3 11 C-3.66 11 -4.32 11 -5 11 C-3.77472971 6.94718288 -2.30119506 3.55639236 0 0 Z " fill="#B7B6B7" transform="translate(368,114)"/>
<path d="M0 0 C1.65 0 3.3 0 5 0 C2.45394698 2.00047023 0.0335364 3.82572785 -3 5 C-3.99 4.67 -4.98 4.34 -6 4 C-5.34 3.34 -4.68 2.68 -4 2 C-2.68 2 -1.36 2 0 2 C0 1.34 0 0.68 0 0 Z " fill="#A09A9D" transform="translate(332,317)"/>
<path d="M0 0 C0.66 0 1.32 0 2 0 C0.7874262 3.72433382 -0.50859979 7.37802806 -2 11 C-2.98120464 7.94736336 -2.98120464 6.05263664 -2 3 C-1.34 3 -0.68 3 0 3 C0 2.01 0 1.02 0 0 Z " fill="#AFABAC" transform="translate(205,190)"/>
</svg>
